<?xml version="1.0" standalone="no"?>
<!DOCTYPE svg PUBLIC "-//W3C//DTD SVG 20010904//EN"
 "http://www.w3.org/TR/2001/REC-SVG-20010904/DTD/svg10.dtd">
<svg version="1.0" xmlns="http://www.w3.org/2000/svg"
 width="800.000000pt" height="800.000000pt" viewBox="0 0 800.000000 800.000000"
 preserveAspectRatio="xMidYMid meet">

<g transform="translate(0.000000,800.000000) scale(0.100000,-0.100000)"
fill="#ffffff" stroke="none">
<path d="M3855 7084 c-1084 -57 -2046 -686 -2531 -1654 -281 -560 -376 -1203
-273 -1830 48 -290 131 -546 269 -825 415 -843 1192 -1437 2110 -1615 352 -68
788 -68 1140 0 299 58 617 173 872 316 764 427 1303 1152 1482 1994 47 223 61
357 61 620 0 334 -30 552 -115 845 -336 1147 -1332 1991 -2515 2129 -138 16
-384 26 -500 20z m510 -169 c331 -44 618 -131 913 -279 l132 -66 0 -240 0
-240 75 0 75 0 0 190 c0 105 3 190 6 190 3 0 45 -28 92 -62 340 -245 628 -569
831 -933 365 -656 451 -1455 236 -2194 -139 -477 -423 -936 -785 -1267 l-75
-69 -3 158 -3 157 -74 0 -75 0 0 -150 0 -150 -380 0 -379 0 -3 -77 -3 -78 -72
-3 -73 -3 0 -74 0 -75 75 0 75 0 0 -75 0 -75 -75 0 -75 0 0 -69 0 -70 -42 -6
c-24 -3 -59 -6 -78 -8 l-35 -2 -3 78 -3 77 -74 0 -75 0 0 75 0 75 75 0 75 0 0
75 0 74 -72 3 -73 3 -3 78 -3 77 -229 0 -230 0 0 380 0 380 75 0 75 0 0 -75 0
-75 155 0 155 0 0 75 0 75 -150 0 -150 0 0 74 c0 87 -3 89 -98 85 l-57 -3 -3
77 -3 77 -74 0 -75 0 0 150 0 150 -75 0 -75 0 0 305 0 305 -23 5 c-13 4 -48 5
-78 3 l-54 -3 -3 -307 -2 -308 75 0 74 0 3 -151 3 -152 75 -1 75 -1 3 -532 2
-533 -74 0 -75 0 -3 -77 -3 -78 -152 -3 -153 -3 0 -74 0 -75 75 0 75 0 0 -75
0 -75 -75 0 -75 0 0 -80 0 -80 75 0 c74 0 75 0 75 -26 0 -26 -1 -26 -52 -20
-79 10 -98 17 -98 32 0 9 -12 14 -37 14 -21 0 -55 3 -75 6 l-38 7 0 73 0 74
-80 0 -81 0 3 73 3 72 78 3 77 3 0 74 0 75 -230 0 -229 0 -3 78 -3 77 -72 3
-73 3 0 74 0 75 -80 0 -80 0 0 230 0 230 75 0 74 0 3 -77 3 -78 305 0 305 0 3
78 3 77 -306 0 -305 0 0 75 0 75 -155 0 -154 0 -3 78 -3 77 -73 0 -72 0 0 153
0 152 -75 0 -75 0 2 -540 3 -540 -42 0 c-39 0 -46 5 -118 83 -108 115 -248
304 -340 458 -211 354 -343 757 -385 1178 -14 147 -12 433 5 593 87 823 537
1571 1225 2038 l105 71 3 -756 2 -756 73 3 72 3 1 75 1 75 77 3 76 3 0 74 0
75 75 0 75 0 0 75 0 74 78 3 77 3 3 78 3 77 74 0 75 0 0 608 0 609 98 21 c132
29 272 51 400 62 144 12 449 4 597 -15z m275 -5584 c0 -4 -34 -15 -75 -23
l-75 -15 0 23 c0 23 3 24 75 24 41 0 75 -4 75 -9z"/>
<path d="M5560 5930 l0 -150 70 0 70 0 0 150 0 150 -70 0 -70 0 0 -150z"/>
<path d="M5714 5757 c-2 -7 -3 -74 -2 -148 l3 -134 78 -3 77 -3 0 -74 0 -75
70 0 70 0 0 150 0 150 -75 0 -75 0 0 75 0 75 -70 0 c-49 0 -72 -4 -76 -13z"/>
<path d="M6020 5010 l0 -301 73 3 72 3 3 298 2 297 -75 0 -75 0 0 -300z"/>
<path d="M2360 4935 l0 -75 70 0 70 0 0 75 0 75 -70 0 -70 0 0 -75z"/>
<path d="M3571 4938 l2 -73 -76 -3 -77 -3 0 -74 0 -74 77 -3 76 -3 -2 -72 -2
-73 80 0 81 0 0 -75 0 -75 75 0 75 0 0 75 0 75 75 0 75 0 0 75 0 75 75 0 75 0
0 75 0 75 -75 0 -75 0 0 75 0 75 -75 0 -75 0 0 -75 0 -76 -77 3 -78 3 -3 73
-3 72 -75 0 -75 0 2 -72z"/>
<path d="M2200 4780 l0 -70 75 0 75 0 0 70 0 70 -75 0 -75 0 0 -70z"/>
<path d="M2052 4553 l3 -148 70 0 70 0 3 148 3 147 -76 0 -76 0 3 -147z"/>
<path d="M6172 4023 l3 -678 68 -3 67 -3 0 681 0 680 -70 0 -70 0 2 -677z"/>
<path d="M1907 4394 c-4 -4 -7 -277 -7 -606 l0 -598 70 0 70 0 -2 603 -3 602
-60 3 c-34 2 -64 0 -68 -4z"/>
<path d="M6024 3325 c-3 -6 -3 -141 -2 -300 l3 -290 70 0 70 0 0 295 0 295
-69 5 c-42 3 -70 1 -72 -5z"/>
<path d="M3270 2645 l0 -75 75 0 75 0 0 75 0 75 -75 0 -75 0 0 -75z"/>
<path d="M5870 2495 l0 -225 70 0 70 0 0 225 0 225 -70 0 -70 0 0 -225z"/>
<path d="M4490 2490 l0 -80 305 0 305 0 0 80 0 80 -305 0 -305 0 0 -80z"/>
<path d="M3270 1575 l0 -75 75 0 75 0 0 75 0 75 -75 0 -75 0 0 -75z"/>
<path d="M4640 1575 l0 -75 80 0 80 0 0 75 0 75 -80 0 -80 0 0 -75z"/>
</g>
</svg>
